<?xml version="1.0" standalone="no"?>
<!DOCTYPE svg PUBLIC "-//W3C//DTD SVG 20010904//EN"
 "http://www.w3.org/TR/2001/REC-SVG-20010904/DTD/svg10.dtd">
<svg version="1.0" xmlns="http://www.w3.org/2000/svg"
 width="100.000000pt" height="100.000000pt" viewBox="0 0 100.000000 100.000000"
 preserveAspectRatio="xMidYMid meet">
<metadata>
Created by potrace 1.11, written by Peter Selinger 2001-2013
</metadata>
<g transform="translate(0.000000,100.000000) scale(0.100000,-0.100000)"
fill="#000000" stroke="none">
<path d="M179 743 c-38 -30 -89 -86 -132 -144 l-28 -37 3 -163 3 -164 189 -3
c129 -2 193 1 202 9 8 6 23 38 35 70 18 49 26 59 45 59 20 0 30 -12 56 -67
l33 -68 195 0 195 0 3 164 3 164 -39 51 c-142 187 -232 206 -232 51 0 -33 5
-47 18 -54 28 -15 42 5 42 59 l0 45 18 -30 c15 -25 42 -100 42 -117 0 -3 -44
-5 -97 -4 -54 1 -118 -2 -143 -7 -25 -4 -58 -10 -75 -12 -16 -3 -45 0 -64 6
-20 7 -91 12 -159 12 l-124 -1 7 27 c3 14 17 49 30 76 l23 50 1 -46 c1 -53 15
-73 43 -58 14 7 18 21 18 57 0 96 -46 127 -111 75z"/>
</g>
</svg>
